<svg width="23" height="21" viewBox="0 0 23 21" fill="none" xmlns="http://www.w3.org/2000/svg">
<path d="M22.9167 13.875V1.50001C22.9157 1.33103 22.8668 1.16439 22.7736 1.01248C22.6804 0.860566 22.5453 0.727277 22.3783 0.622509C22.2137 0.516783 22.0214 0.441692 21.8155 0.402755C21.6096 0.363818 21.3953 0.362025 21.1883 0.397509L8.43833 2.64751C8.12358 2.70388 7.84248 2.84388 7.64155 3.04436C7.44061 3.24484 7.33188 3.49378 7.33333 3.75001V13.1325C6.36622 12.7699 5.27713 12.6662 4.22946 12.8368C3.18179 13.0074 2.23203 13.4431 1.52264 14.0787C0.813261 14.7143 0.382514 15.5153 0.29502 16.3618C0.207527 17.2082 0.468005 18.0544 1.03738 18.7733C1.60675 19.4922 2.45432 20.0451 3.45294 20.3491C4.45155 20.6531 5.54736 20.6918 6.57598 20.4593C7.60461 20.2268 8.51057 19.7357 9.15798 19.0597C9.80538 18.3837 10.1593 17.5593 10.1667 16.71C10.1813 16.5152 10.1813 16.3198 10.1667 16.125V4.65001L20.0833 2.90626V10.8825C19.1157 10.5197 18.0259 10.416 16.9777 10.587C15.9295 10.758 14.9795 11.1944 14.2703 11.8307C13.561 12.4671 13.1309 13.2689 13.0445 14.1159C12.9581 14.9629 13.2201 15.8093 13.791 16.528C14.362 17.2467 15.2112 17.7988 16.2111 18.1016C17.2109 18.4043 18.3075 18.4413 19.3361 18.2069C20.3647 17.9726 21.2697 17.4796 21.9154 16.8019C22.561 16.1242 22.9124 15.2985 22.9167 14.4488C22.9301 14.2577 22.9301 14.0661 22.9167 13.875Z" fill="#D9D9D9"/>
</svg>
