<svg width="304" height="303" viewBox="0 0 304 303" fill="none" xmlns="http://www.w3.org/2000/svg">
<circle cx="152.5" cy="151.5" r="151.5" fill="none"/>
<path d="M161 71.5C146.2 53.9 25 71.9323 19 79C-2.5 114.5 5.04851e-05 152 1.50004 167C20.5 151.5 110 105 137 112C152.5 124 142 174.5 165.5 187C193.5 201.5 216.5 143.041 234.5 144.5C252.5 145.959 267.5 250 267.5 250C267.5 250 280 234.833 281.5 231.5C274.5 168 259.5 117.5 239 112C218.5 106.5 188.5 156.5 176 149C163.5 141.5 181.5 86 161 71.5Z" fill="#09071D"/>
<path d="M141.5 206C103.9 188.8 38.1667 197.5 10 204C14.8333 219.167 26.5 248.7 34.5 245.5C60.155 235.238 104.5 233.5 127.5 241.242C150.5 248.984 182.436 267.489 190 298.5C203.5 303.5 228.3 308.2 219.5 287C208.5 260.5 188.5 227.5 141.5 206Z" fill="#09071D"/>
</svg>
